<svg xmlns="http://www.w3.org/2000/svg" viewBox="0 0 32 32" fill="none" stroke="currentColor" stroke-width="2" stroke-linecap="round" stroke-linejoin="round" aria-labelledby="tracking-icon-title" role="img">
  <title id="tracking-icon-title">Real-time tracking</title>
  <path d="M16 28c6.627 0 12-5.373 12-12S22.627 4 16 4 4 9.373 4 16s5.373 12 12 12z"/>
  <path d="M16 20c2.21 0 4-1.79 4-4s-1.79-4-4-4-4 1.79-4 4 1.79 4 4 4z"/>
  <path d="M16 2v4M16 26v4M2 16h4M26 16h4"/>
  <circle cx="16" cy="16" r="1" fill="currentColor"/>
  <path d="M8 8l2 2M22 8l-2 2M8 24l2-2M22 24l-2-2" opacity="0.5"/>
</svg>